<?xml version="1.0" encoding="utf-8"?>
<!-- Generator: Adobe Illustrator 22.0.1, SVG Export Plug-In . SVG Version: 6.00 Build 0)  -->
<svg version="1.1" id="Layer_1" xmlns="http://www.w3.org/2000/svg" xmlns:xlink="http://www.w3.org/1999/xlink" x="0px" y="0px"
   viewBox="0 0 108.3 125" style="enable-background:new 0 0 108.3 125;" xml:space="preserve">
<style type="text/css">
	.st0{fill:#F8F8F8;}
	.st1{fill:#49E20E;}
	.st2{opacity:0.15;}
	.st3{stroke:#000000;stroke-width:9.375000e-02;}
</style>
<title>bill</title>
<polygon class="st0" points="0,31.2 54.2,0 108.3,31.2 108.3,93 54.2,125 0,93 "/>
<g id="Mask-2">
	<path id="path-2-2" class="st1" d="M7,36L53.8,9l46.8,27v53.3L53.8,117L7,89.3V36z"/>
</g>
<g id="Path-295" class="st2">
	<path d="M101.8,36L54,65.3l47.3,24.2L101.8,36z"/>
	<path d="M6,36l47.8,29.3L6.6,89.6L6,36z"/>
</g>
<path id="path839" class="st3" d="m 47.221641,101.01646 c -5.402968,-2.755037 -8.950269,-7.356778 -10.066865,-13.05925 -0.69113,-3.529611 -0.180383,-4.853321 3.16244,-8.196144 4.733714,-4.733713 10.745354,-5.49678 10.745354,-1.363922 0,1.90279 -0.874255,2.622766 -3.184786,2.622766 -4.357881,0 -7.612265,3.490557 -6.547773,7.022944 1.661361,5.513025 7.253004,10.025035 12.423823,10.025035 7.895078,0 14.928385,-7.945125 11.682509,-13.197062 -1.609279,-2.603868 -3.881477,-0.02852 -3.902041,4.422621 l -0.01933,4.184601 -1.685916,-3.278458 c -1.062816,-2.066766 -2.752041,-3.239974 -4.57051,-3.174332 -4.081564,0.147332 -3.585208,-1.849765 0.721713,-2.903823 3.31236,-0.810654 5.503203,-2.598717 5.553297,-4.532338 0.01102,-0.426316 -2.783,-2.302554 -6.208988,-4.169418 C 45.361343,69.990597 41.615691,65.254382 40.87472,57.14848 40.090049,48.564498 38.845937,46.923952 33.120933,46.923952 c -2.533296,0 -4.16727,-0.549146 -3.731579,-1.25411 0.426295,-0.68976 1.641367,-0.921685 2.70016,-0.515388 2.96257,1.136845 2.280086,-1.767273 -0.946416,-4.027202 -1.579321,-1.1062 -2.424144,-2.45862 -1.877385,-3.005379 0.546759,-0.54676 2.009053,0.351435 3.249543,1.995989 2.324852,3.082126 4.486582,2.724889 3.235751,-0.534726 -0.388102,-1.011375 -0.05238,-1.838865 0.746047,-1.838865 0.798427,0 1.451686,1.70723 1.451686,3.793845 0,2.086615 0.840647,4.116433 1.868105,4.510705 2.577166,0.988952 5.995727,-4.631338 6.020275,-9.897641 0.02876,-6.169041 1.291245,-7.42633 7.891095,-7.858588 l 5.858345,-0.383694 0.407983,5.670296 c 0.4876,6.776835 -1.348642,9.410609 -6.560987,9.410609 -3.257833,0 -3.798974,0.463383 -3.445731,2.950611 0.603881,4.252009 6.957131,4.785351 10.353621,0.869167 1.397114,-1.610887 2.979057,-2.458424 3.515427,-1.883415 0.53637,0.57501 0.237566,1.308919 -0.66401,1.630911 -3.442177,1.229349 -1.530002,3.174043 2.29492,2.333949 2.475219,-0.543649 3.93415,-0.339134 3.93415,0.551496 0,0.778568 -1.917898,1.434347 -4.261995,1.457285 -4.01749,0.03932 -4.117023,0.151384 -1.734961,1.953525 1.389869,1.0515 2.21112,2.227731 1.825003,2.61385 -0.386117,0.386117 -2.108903,-0.437185 -3.828414,-1.82956 -2.367786,-1.917317 -3.721891,-2.212884 -5.580632,-1.218118 -2.260174,1.209609 -2.038483,1.744234 2.803467,6.760797 2.891744,2.996027 6.511668,7.955341 8.044276,11.020699 3.112178,6.224645 5.917447,7.033063 10.285127,2.96395 1.63398,-1.522284 3.135121,-2.068633 3.603127,-1.311383 0.44123,0.713925 0.177286,1.298045 -0.586541,1.298045 -0.763826,0 -1.388776,0.590122 -1.388776,1.311383 0,0.721261 1.475305,1.311383 3.278457,1.311383 1.803152,0 3.278458,0.658917 3.278458,1.46426 0,0.854748 -1.364692,1.203383 -3.278458,0.837544 -3.270299,-0.625158 -4.453634,0.751258 -1.967074,2.288036 0.72126,0.445764 1.311383,1.405959 1.311383,2.133766 0,0.727809 -1.655423,0.144522 -3.678717,-1.29619 -2.023295,-1.440713 -4.301705,-2.21855 -5.063133,-1.728527 -0.761428,0.490024 -1.675504,3.995072 -2.031281,7.788998 -0.722938,7.709256 -3.350459,11.518753 -9.839032,14.265075 -5.538674,2.34427 -7.973459,2.25138 -13.390576,-0.51088 z m 7.126662,-10.824909 c 1.309466,-1.446943 2.665266,-2.346387 3.012888,-1.998765 0.881162,0.881161 -2.389628,4.629571 -4.039674,4.629571 -0.744733,0 -0.282679,-1.183863 1.026786,-2.630806 z"/>
</svg>
